<?xml version="1.0" standalone="no"?><!DOCTYPE svg PUBLIC "-//W3C//DTD SVG 1.1//EN" "http://www.w3.org/Graphics/SVG/1.1/DTD/svg11.dtd"><svg t="1494064800628" class="icon" style="" viewBox="0 0 1024 1024" version="1.1" xmlns="http://www.w3.org/2000/svg" p-id="11719" xmlns:xlink="http://www.w3.org/1999/xlink" width="64" height="64"><defs><style type="text/css"></style></defs><path d="M543.107825 255.51394l-421.592885 0c-17.498151 0-31.721795-14.223643-31.721795-31.721795s14.223643-31.721795 31.721795-31.721795l421.592885 0c17.498151 0 31.721795 14.223643 31.721795 31.721795S560.605976 255.51394 543.107825 255.51394z" p-id="11720"></path><path d="M543.107825 575.494754l-421.592885 0c-17.498151 0-31.721795-14.223643-31.721795-31.721795s14.223643-31.721795 31.721795-31.721795l421.592885 0c17.498151 0 31.721795 14.223643 31.721795 31.721795S560.605976 575.494754 543.107825 575.494754z" p-id="11721"></path><path d="M543.107825 895.066254l-421.592885 0c-17.498151 0-31.721795-14.223643-31.721795-31.721795s14.223643-31.721795 31.721795-31.721795l421.592885 0c17.498151 0 31.721795 14.223643 31.721795 31.721795S560.605976 895.066254 543.107825 895.066254z" p-id="11722"></path><path d="M913.331868 685.190766c-12.381733-12.381733-32.438093-12.381733-44.819826 0L767.309284 786.393525 767.309284 223.996802c0-17.498151-14.223643-31.721795-31.721795-31.721795s-31.721795 14.223643-31.721795 31.721795l0 639.552313c0 17.498151 14.223643 31.721795 31.721795 31.721795 7.776956 0 14.837614-2.762866 20.363346-7.367643 0.818627-0.716299 157.381033-157.790347 157.381033-157.790347C925.7136 717.731188 925.7136 697.572499 913.331868 685.190766z" p-id="11723"></path></svg>