<?xml version="1.0" standalone="no"?><!DOCTYPE svg PUBLIC "-//W3C//DTD SVG 1.1//EN" "http://www.w3.org/Graphics/SVG/1.1/DTD/svg11.dtd"><svg t="1494240451018" class="icon" style="" viewBox="0 0 1024 1024" version="1.1" xmlns="http://www.w3.org/2000/svg" p-id="3973" xmlns:xlink="http://www.w3.org/1999/xlink" width="64" height="64"><defs><style type="text/css"></style></defs><path d="M361 746.7c-32.4 0-58.6 26.2-58.6 58.6 0 32.4 26.3 58.6 58.6 58.6h536c32.4 0 58.6-26.2 58.6-58.6 0-32.4-26.3-58.6-58.6-58.6H361z m-234-0.3c-32.4 0-58.6 26.3-58.6 58.6 0 32.4 26.2 58.6 58.6 58.6 32.4 0 58.6-26.3 58.6-58.6 0.1-32.3-26.2-58.6-58.6-58.6m234-292.9c-32.4 0-58.6 26.2-58.6 58.6 0 32.4 26.3 58.6 58.6 58.6h536c32.4 0 58.6-26.2 58.6-58.6 0-32.4-26.3-58.6-58.6-58.6m-770-0.3c-32.4 0-58.6 26.2-58.6 58.6 0 32.4 26.2 58.6 58.6 58.6 32.4 0 58.6-26.2 58.6-58.6 0.1-32.3-26.2-58.6-58.6-58.6m770-175.6c32.4 0 58.6-26.3 58.6-58.6s-26.3-58.6-58.6-58.6H361c-32.4 0-58.6 26.3-58.6 58.6s26.3 58.6 58.6 58.6h536zM68.4 218.7c0 32.4 26.2 58.6 58.6 58.6 32.4 0 58.6-26.2 58.6-58.6 0-32.4-26.2-58.6-58.6-58.6-32.4 0-58.6 26.2-58.6 58.6z" p-id="3974" fill="#ffffff"></path></svg>