<?xml version="1.0" standalone="no"?><!DOCTYPE svg PUBLIC "-//W3C//DTD SVG 1.1//EN" "http://www.w3.org/Graphics/SVG/1.1/DTD/svg11.dtd"><svg t="1494581802588" class="icon" style="" viewBox="0 0 1024 1024" version="1.1" xmlns="http://www.w3.org/2000/svg" p-id="1904" xmlns:xlink="http://www.w3.org/1999/xlink" width="64" height="64"><defs><style type="text/css"></style></defs><path d="M630.224 74.336c0 0-23.92 0-47.84 70.048 0 0-87.12 15.376-70.048 123.008-27.328 93.952-133.248 58.08-189.632 179.376s-29.04 227.216-10.256 271.632c2.176 23.072-53.536 43.104-23.408 127.264 38.224 106.768 277.952 82.288 284.784 25.632 0 0-161.728 34.448-231.488-24.768 0 0-28.192-27.328-11.104-64.912 8.544-15.376 171.696 23.056 240.88-7.68 0 0 17.936-34.16-38.432-34.16 0 0 8.544-17.936 15.376-38.432 6.832-20.496 8.544 77.728 75.168 77.728 0 0 37.584 4.272 29.904-29.904 0 0 27.328-32.464-23.92-32.464 0 0-19.936-67.76-3.984-179.376 2.272-56.944 59.216-52.384 59.216-135.536s-17.088-111.616-17.088-111.616 46.48-15.648 56.368-62.352c1.264-5.968 1.328-26.192-13.104-26.48 0 0-23.92-50.112-70.608-50.112C641.04 151.2 649.024 85.152 630.224 74.336z" p-id="1905"></path></svg>