<?xml version="1.0" standalone="no"?><!DOCTYPE svg PUBLIC "-//W3C//DTD SVG 1.1//EN" "http://www.w3.org/Graphics/SVG/1.1/DTD/svg11.dtd"><svg t="1494179903594" class="icon" style="" viewBox="0 0 1024 1024" version="1.1" xmlns="http://www.w3.org/2000/svg" p-id="5216" xmlns:xlink="http://www.w3.org/1999/xlink" width="64" height="64"><defs><style type="text/css"></style></defs><path d="M189.400163 393.087727c92.89369 45.779649 180.300412 31.639604 180.300412 31.639604 33.613562-12.612249 84.643796-32.41834 144.661727-35.417651 60.014862-2.987031 96.642061 18.611893 119.43723 34.21015 22.819728 15.611559 76.851319 37.807071 88.23867 35.418674 11.404748-2.402723 62.434981-39.613206 107.450221-39.015595 45.017286 0.610914 52.822043 13.195533 52.822043 13.195533 15.59928-9.597589 36.016285 0 36.016285 0-11.402701 6.610558-9.016351 14.417361-9.016351 14.417361 12.014638-3.000334 38.420031 9.598612 38.420031 9.598612s-4.194532-3.597945-12.598946 6.000668c-8.402367 9.625218-25.821085 12.013615-25.821085 12.013615s0.61296 24.001647 0 31.807427c-0.595564 7.804756-11.401678 24.01495-14.999622 34.21015-3.596921 10.207479 0.597611 16.806781-10.791787 24.62484-11.404748 7.792477-40.821731-3.000334-48.030923-11.416004-7.194866-8.404414-13.208836-2.388397-13.208836-2.388397 0 12.595876-16.194844 47.405683-24.598234 64.822354-8.403391 17.390066 3.000334 39.015595 3.000334 39.015595 31.210839 46.281069 119.43723 94.823646 135.048789 103.242386 13.472849 7.249101 12.001335 29.401634-7.194866 33.013905-19.22383 3.599991-37.820374-8.402367-50.41932-21.013593-12.611226-12.611226-107.450221-73.822332-107.450221-73.822332-43.808762-20.403702-54.030567-44.419675-72.031547-66.642816-18.015306-22.196535-9.001001 3.597945-5.403057 21.62553 3.611248 18.002003-4.792143 36.001959-15.598256 48.613184-10.80509 12.599969-38.419008 38.420031-55.834656 21.001313-17.405415-17.390066 19.820418-45.599548 27.610848-51.016931 7.806803-5.402033-0.595564-16.207124-0.595564-16.207124-3.599991-5.988388-17.405415-19.808138-31.210839-45.073568-13.805424-25.278733-59.391668-24.50102-94.227058-26.348088-56.434314-3.000334-67.379597 11.402701-70.378907 15.597233s-11.862165 20.418029-25.071002 37.210483c-13.208836 16.821107-37.821397 42.626843-38.417985 57.628512-0.610914 15.013949 28.209482 30.611182 28.209482 30.611182 46.822398 11.418051 25.209148 32.420387-0.596588 33.015951-25.806759 0.597611-61.822021-46.822398-67.822688-56.419987-6.013971-9.611915-9.015328-13.804401-16.821107-9.611915-7.791453 4.208858-38.404682 21.015639-61.22441 33.626865-22.793122 12.597923-16.806781 51.003628-13.806447 51.003628 3.000334 0 21.028942 0 22.751167 21.029966 1.749854 20.999266-29.334095 17.999956-29.334095 17.999956-32.419364-12.015661-33.725102-32.821523-33.918507-77.337389-0.305969-61.308321 80.128969-118.937856 80.128969-118.937856-3.596921-45.029566-0.596588-101.462856 7.194866-120.659057 7.820106-19.209504-4.194532-22.806425-4.194532-22.806425C89.395518 436.131055 77.797365 346.681814 77.797365 323.889715c0-22.807449 11.19497-85.643566 56.002478-110.451578 0 0 17.472953-8.249895 27.155477-1.249457 8.000208 5.777587-12.44545 30.668487-12.44545 30.668487s-30.224372 43.557028-25.77913 73.7814C122.730741 316.638567 118.730637 353.529779 189.400163 393.087727z" p-id="5217"></path></svg>